<svg width="22" height="22" viewBox="0 0 22 22" fill="none" xmlns="http://www.w3.org/2000/svg">
    <path d="M19.13 0.77H7.97001C7.41306 0.77 6.87891 0.99125 6.48509 1.38508C6.09126 1.7789 5.87001 2.31305 5.87001 2.87V14.03C5.87001 14.587 6.09126 15.1211 6.48509 15.5149C6.87891 15.9088 7.41306 16.13 7.97001 16.13H19.13C19.687 16.13 20.2211 15.9088 20.6149 15.5149C21.0088 15.1211 21.23 14.587 21.23 14.03V2.87C21.23 2.31305 21.0088 1.7789 20.6149 1.38508C20.2211 0.99125 19.687 0.77 19.13 0.77ZM19.43 14.03C19.43 14.1096 19.3984 14.1859 19.3421 14.2421C19.2859 14.2984 19.2096 14.33 19.13 14.33H7.97001C7.89045 14.33 7.81414 14.2984 7.75788 14.2421C7.70162 14.1859 7.67001 14.1096 7.67001 14.03V2.87C7.67001 2.79044 7.70162 2.71413 7.75788 2.65787C7.81414 2.60161 7.89045 2.57 7.97001 2.57H19.13C19.2096 2.57 19.2859 2.60161 19.3421 2.65787C19.3984 2.71413 19.43 2.79044 19.43 2.87V14.03Z" fill="white"/>
    <path d="M2.87 7.67H3.53C3.7687 7.67 3.99762 7.57518 4.1664 7.4064C4.33518 7.23762 4.43 7.0087 4.43 6.77C4.43 6.53131 4.33518 6.30239 4.1664 6.13361C3.99762 5.96482 3.7687 5.87 3.53 5.87H2.87C2.31305 5.87 1.77891 6.09125 1.38508 6.48508C0.991254 6.8789 0.770004 7.41305 0.770004 7.97V19.13C0.770004 19.687 0.991254 20.2211 1.38508 20.6149C1.77891 21.0088 2.31305 21.23 2.87 21.23H14.03C14.587 21.23 15.1211 21.0088 15.5149 20.6149C15.9088 20.2211 16.13 19.687 16.13 19.13V18.41C16.13 18.1713 16.0352 17.9424 15.8664 17.7736C15.6976 17.6048 15.4687 17.51 15.23 17.51C14.9913 17.51 14.7624 17.6048 14.5936 17.7736C14.4248 17.9424 14.33 18.1713 14.33 18.41V19.13C14.33 19.2096 14.2984 19.2859 14.2421 19.3421C14.1859 19.3984 14.1096 19.43 14.03 19.43H2.87C2.79044 19.43 2.71413 19.3984 2.65787 19.3421C2.60161 19.2859 2.57 19.2096 2.57 19.13V7.97C2.57 7.89044 2.60161 7.81413 2.65787 7.75787C2.71413 7.70161 2.79044 7.67 2.87 7.67Z" fill="white"/>
</svg>
