<svg width="20" height="20" viewBox="0 0 20 20" fill="none" xmlns="http://www.w3.org/2000/svg">
    <path d="M15.3139 0.618164H2.56816C1.4928 0.618164 0.618156 1.4928 0.618156 2.56816V17.4318C0.618156 18.5072 1.4928 19.3818 2.56816 19.3818H17.4318C18.5072 19.3818 19.3818 18.5072 19.3818 17.4318V5.35276L15.3139 0.618164ZM10 16.565C8.63578 16.565 7.53 15.4592 7.53 14.095C7.53 12.7308 8.63578 11.625 10 11.625C11.3642 11.625 12.47 12.7308 12.47 14.095C12.47 15.4592 11.3642 16.565 10 16.565ZM13.12 7.79H3.305V3.24H13.12V7.79Z" fill="white"/>
</svg>
