<svg width="27" height="27" viewBox="0 0 27 27" fill="none" xmlns="http://www.w3.org/2000/svg">
    <path d="M13.5023 17.919C15.9188 17.919 17.8852 15.9525 17.8852 13.5315V6.6375C17.8852 4.2165 15.9188 2.25 13.5023 2.25C11.0813 2.25 9.11475 4.2165 9.11475 6.6375V13.5315C9.11475 15.9525 11.0813 17.919 13.5023 17.919Z" fill="white"/>
    <path d="M13.0523 21.0285V23.85H8.31374C8.06174 23.85 7.86374 24.0525 7.86374 24.3C7.86374 24.5475 8.06174 24.75 8.31374 24.75H18.6907C18.9382 24.75 19.1407 24.5475 19.1407 24.3C19.1407 24.0525 18.9382 23.85 18.6907 23.85H13.9523V21.0285C17.8852 20.7945 21.0083 17.523 21.0083 13.5315V11.844C21.0083 11.592 20.8102 11.394 20.5583 11.394C20.3107 11.394 20.1082 11.592 20.1082 11.844V13.5315C20.1082 17.1765 17.1472 20.142 13.5023 20.142C9.85724 20.142 6.89175 17.1765 6.89175 13.5315V11.844C6.89175 11.592 6.68925 11.394 6.44175 11.394C6.19423 11.394 5.99175 11.592 5.99175 11.844V13.5315C5.99175 17.523 9.11923 20.7945 13.0523 21.0285Z" fill="white"/>
</svg>
