<svg width="18" height="18" viewBox="0 0 18 18" fill="none" xmlns="http://www.w3.org/2000/svg">
    <path d="M16.9162 7.146L14.1672 4.147C14.0807 4.05378 13.9642 4.00104 13.8427 4H12.4677V1.5C12.4677 1.36739 12.4194 1.24021 12.3334 1.14645C12.2475 1.05268 12.1309 1 12.0093 1H9.71766V0.5C9.71766 0.367392 9.66937 0.240215 9.58342 0.146447C9.49747 0.0526784 9.38089 0 9.25933 0H3.75933C3.63777 0 3.52119 0.0526784 3.43524 0.146447C3.34928 0.240215 3.30099 0.367392 3.30099 0.5V1H1.00933C0.887771 1 0.771192 1.05268 0.685238 1.14645C0.599283 1.24021 0.550995 1.36739 0.550995 1.5V16.5C0.550995 16.6326 0.599283 16.7598 0.685238 16.8536C0.771192 16.9473 0.887771 17 1.00933 17H6.05099V17.5C6.05099 17.6326 6.09928 17.7598 6.18524 17.8536C6.27119 17.9473 6.38777 18 6.50933 18H16.5927C16.7142 18 16.8308 17.9473 16.9168 17.8536C17.0027 17.7598 17.051 17.6326 17.051 17.5V7.5C17.051 7.3698 17.0008 7.238 16.9162 7.146ZM14.301 5.707L15.4861 7H14.301V5.707ZM4.21766 1H8.80099V2H4.21766V1ZM6.05099 4.5V16H1.46766V2H3.30099V2.5C3.30099 2.63261 3.34928 2.75979 3.43524 2.85355C3.52119 2.94732 3.63777 3 3.75933 3H9.25933C9.38089 3 9.49747 2.94732 9.58342 2.85355C9.66937 2.75979 9.71766 2.63261 9.71766 2.5V2H11.551V4H6.50933C6.38777 4 6.27119 4.05268 6.18524 4.14645C6.09928 4.24021 6.05099 4.36739 6.05099 4.5ZM16.1343 17H6.96766V5H13.3843V7.5C13.3843 7.63261 13.4326 7.75979 13.5186 7.85355C13.6045 7.94732 13.7211 8 13.8427 8H16.1343V17Z" fill="black"/>
</svg>
