<svg width="24" height="24" viewBox="0 0 24 24" fill="none" xmlns="http://www.w3.org/2000/svg">
    <path d="M16.1538 6.92308H2.30768C1.94046 6.92308 1.58828 7.06896 1.32861 7.32862C1.06895 7.58829 0.923068 7.94047 0.923068 8.3077V22.1538C0.922761 22.2482 0.95135 22.3403 1.00498 22.4179C1.05862 22.4954 1.13473 22.5547 1.22307 22.5877C1.27483 22.6065 1.32954 22.6159 1.38461 22.6154C1.45014 22.6153 1.5149 22.6013 1.57459 22.5742C1.63427 22.5472 1.68751 22.5077 1.73076 22.4585L4.01538 19.8462H16.1538C16.5211 19.8462 16.8732 19.7003 17.1329 19.4406C17.3926 19.1809 17.5385 18.8288 17.5385 18.4615V8.3077C17.5385 7.94047 17.3926 7.58829 17.1329 7.32862C16.8732 7.06896 16.5211 6.92308 16.1538 6.92308ZM13.3846 16.6154H5.07691C4.95451 16.6154 4.83711 16.5668 4.75056 16.4802C4.664 16.3937 4.61538 16.2763 4.61538 16.1538C4.61538 16.0314 4.664 15.914 4.75056 15.8275C4.83711 15.7409 4.95451 15.6923 5.07691 15.6923H13.3846C13.507 15.6923 13.6244 15.7409 13.711 15.8275C13.7975 15.914 13.8461 16.0314 13.8461 16.1538C13.8461 16.2763 13.7975 16.3937 13.711 16.4802C13.6244 16.5668 13.507 16.6154 13.3846 16.6154ZM13.3846 13.8462H5.07691C4.95451 13.8462 4.83711 13.7975 4.75056 13.711C4.664 13.6244 4.61538 13.507 4.61538 13.3846C4.61538 13.2622 4.664 13.1448 4.75056 13.0583C4.83711 12.9717 4.95451 12.9231 5.07691 12.9231H13.3846C13.507 12.9231 13.6244 12.9717 13.711 13.0583C13.7975 13.1448 13.8461 13.2622 13.8461 13.3846C13.8461 13.507 13.7975 13.6244 13.711 13.711C13.6244 13.7975 13.507 13.8462 13.3846 13.8462ZM13.3846 11.0769H5.07691C4.95451 11.0769 4.83711 11.0283 4.75056 10.9417C4.664 10.8552 4.61538 10.7378 4.61538 10.6154C4.61538 10.493 4.664 10.3756 4.75056 10.289C4.83711 10.2025 4.95451 10.1538 5.07691 10.1538H13.3846C13.507 10.1538 13.6244 10.2025 13.711 10.289C13.7975 10.3756 13.8461 10.493 13.8461 10.6154C13.8461 10.7378 13.7975 10.8552 13.711 10.9417C13.6244 11.0283 13.507 11.0769 13.3846 11.0769Z" fill="#CE2029"/>
    <path d="M21.6923 1.38461H7.84616C7.47894 1.38461 7.12676 1.53049 6.86709 1.79016C6.60743 2.04982 6.46155 2.40201 6.46155 2.76923V6H16.1539C16.7659 6 17.3529 6.24313 17.7856 6.67591C18.2184 7.10868 18.4615 7.69565 18.4615 8.30769V14.3077H19.9846L22.2923 16.92C22.3329 16.9664 22.3825 17.0042 22.438 17.0312C22.4935 17.0581 22.5538 17.0737 22.6154 17.0769C22.6705 17.0774 22.7252 17.068 22.7769 17.0492C22.8653 17.0162 22.9414 16.9569 22.995 16.8794C23.0487 16.8018 23.0772 16.7097 23.0769 16.6154V2.76923C23.0769 2.40201 22.9311 2.04982 22.6714 1.79016C22.4117 1.53049 22.0595 1.38461 21.6923 1.38461Z" fill="#CE2029"/>
</svg>
