<svg width="22" height="22" viewBox="0 0 22 22" fill="none" xmlns="http://www.w3.org/2000/svg">
    <g clip-path="url(#clip0_1_341)">
        <path d="M20.3814 3.66661C20.3814 5.31201 19.0477 6.64589 17.4023 6.64589C15.7569 6.64589 14.4232 5.31201 14.4232 3.66661C14.4232 2.02138 15.7569 0.6875 17.4023 0.6875C19.0477 0.6875 20.3814 2.02138 20.3814 3.66661Z" fill="#CE2029"/>
        <path d="M17.4023 7.33339C15.3801 7.33339 13.7357 5.68883 13.7357 3.66661C13.7357 1.64456 15.3801 0 17.4023 0C19.4245 0 21.0689 1.64456 21.0689 3.66661C21.0689 5.68883 19.4245 7.33339 17.4023 7.33339ZM17.4023 1.375C16.1383 1.375 15.1107 2.40356 15.1107 3.66661C15.1107 4.92982 16.1383 5.95839 17.4023 5.95839C18.6664 5.95839 19.6939 4.92982 19.6939 3.66661C19.6939 2.40356 18.6664 1.375 17.4023 1.375Z" fill="#CE2029"/>
        <path d="M20.3814 18.3334C20.3814 19.9786 19.0477 21.3125 17.4023 21.3125C15.7569 21.3125 14.4232 19.9786 14.4232 18.3334C14.4232 16.688 15.7569 15.3541 17.4023 15.3541C19.0477 15.3541 20.3814 16.688 20.3814 18.3334Z" fill="#CE2029"/>
        <path d="M17.4023 22C15.3801 22 13.7357 20.3554 13.7357 18.3334C13.7357 16.3112 15.3801 14.6666 17.4023 14.6666C19.4245 14.6666 21.0689 16.3112 21.0689 18.3334C21.0689 20.3554 19.4245 22 17.4023 22ZM17.4023 16.0416C16.1383 16.0416 15.1107 17.0702 15.1107 18.3334C15.1107 19.5964 16.1383 20.625 17.4023 20.625C18.6664 20.625 19.6939 19.5964 19.6939 18.3334C19.6939 17.0702 18.6664 16.0416 17.4023 16.0416Z" fill="#CE2029"/>
        <path d="M7.54823 11C7.54823 12.6454 6.21436 13.9791 4.56895 13.9791C2.92372 13.9791 1.58984 12.6454 1.58984 11C1.58984 9.3546 2.92372 8.02089 4.56895 8.02089C6.21436 8.02089 7.54823 9.3546 7.54823 11Z" fill="#CE2029"/>
        <path d="M4.56895 14.6666C2.54691 14.6666 0.902344 13.0222 0.902344 11C0.902344 8.97778 2.54691 7.33339 4.56895 7.33339C6.59117 7.33339 8.23573 8.97778 8.23573 11C8.23573 13.0222 6.59117 14.6666 4.56895 14.6666ZM4.56895 8.70839C3.3049 8.70839 2.27734 9.73679 2.27734 11C2.27734 12.2632 3.3049 13.2916 4.56895 13.2916C5.83318 13.2916 6.86073 12.2632 6.86073 11C6.86073 9.73679 5.83318 8.70839 4.56895 8.70839Z" fill="#CE2029"/>
        <path d="M6.73335 10.5601C6.41427 10.5601 6.10442 10.3941 5.93574 10.0972C5.68548 9.65806 5.83956 9.09796 6.27865 8.84669L14.7843 3.9976C15.2234 3.7455 15.7835 3.89958 16.0347 4.34035C16.285 4.77943 16.1309 5.33954 15.6918 5.5908L7.18603 10.4399C7.04302 10.5215 6.88726 10.5601 6.73335 10.5601Z" fill="#CE2029"/>
        <path d="M15.2381 18.1226C15.084 18.1226 14.9283 18.084 14.7853 18.0024L6.27947 13.1533C5.84038 12.903 5.68647 12.3429 5.93673 11.9028C6.18598 11.4629 6.74692 11.308 7.18702 11.5601L15.6928 16.4092C16.1319 16.6595 16.2858 17.2196 16.0356 17.6597C15.866 17.9566 15.5562 18.1226 15.2381 18.1226Z" fill="#CE2029"/>
    </g>
    <defs>
        <clipPath id="clip0_1_341">
            <rect width="22" height="22" fill="white"/>
        </clipPath>
    </defs>
</svg>
