<svg width="21" height="20" viewBox="0 0 21 20" fill="none" xmlns="http://www.w3.org/2000/svg">
    <path d="M20.0863 6.80226L14.3032 6.25542C13.9387 6.22228 13.6236 5.99029 13.4747 5.64231L11.4033 0.6214C11.0719 -0.207133 9.89522 -0.207133 9.5638 0.6214L7.50902 5.64231C7.37645 5.99029 7.04504 6.22228 6.68048 6.25542L0.897275 6.80226C0.0355936 6.88511 -0.312393 7.9622 0.333868 8.54218L4.69199 12.37C4.97369 12.6186 5.08969 12.9831 5.00683 13.3477L3.69774 18.7164C3.49889 19.5617 4.41028 20.2575 5.17254 19.8102L9.99464 16.9765C10.3095 16.7942 10.6906 16.7942 11.0055 16.9765L15.8277 19.8102C16.59 20.2575 17.5014 19.5782 17.3024 18.7164L16.0098 13.3477C15.927 12.9831 16.043 12.6186 16.3247 12.37L20.6828 8.54218C21.3125 7.9622 20.9479 6.88511 20.0863 6.80226Z" fill="#CE2029"/>
</svg>
