<svg width="30" height="30" viewBox="0 0 30 30" fill="none" xmlns="http://www.w3.org/2000/svg">
    <path d="M6.6252 14.0502H23.3748C23.4707 14.146 23.5888 14.2167 23.7186 14.256C23.8483 14.2953 23.9858 14.302 24.1188 14.2755C24.2517 14.249 24.3761 14.1901 24.4809 14.1041C24.5857 14.0181 24.6677 13.9075 24.7195 13.7823C24.7714 13.657 24.7916 13.5209 24.7783 13.3859C24.7651 13.251 24.7187 13.1214 24.6434 13.0087C24.5681 12.8959 24.4662 12.8035 24.3466 12.7395C24.2271 12.6756 24.0936 12.6421 23.958 12.642L19.458 8.14201C19.3816 8.06456 19.2906 8.00299 19.1903 7.96085C19.09 7.91871 18.9823 7.89682 18.8735 7.89646C18.7647 7.89609 18.6569 7.91726 18.5563 7.95873C18.4557 8.00019 18.3643 8.06115 18.2874 8.13809C18.2104 8.21503 18.1495 8.30642 18.108 8.40702C18.0665 8.50761 18.0454 8.61541 18.0457 8.72422C18.0461 8.83302 18.068 8.94068 18.1101 9.04099C18.1523 9.14131 18.2138 9.23229 18.2913 9.30871L21.3831 12.4005H6.6252C6.51555 12.3984 6.40659 12.4182 6.30469 12.4587C6.20278 12.4992 6.10997 12.5597 6.03169 12.6365C5.95341 12.7133 5.89123 12.8049 5.84878 12.906C5.80633 13.0071 5.78447 13.1157 5.78447 13.2254C5.78447 13.335 5.80633 13.4436 5.84878 13.5447C5.89123 13.6458 5.95341 13.7375 6.03169 13.8143C6.10997 13.8911 6.20278 13.9515 6.30469 13.992C6.40659 14.0325 6.51555 14.0523 6.6252 14.0502ZM23.3748 15.9498H6.6252C6.52927 15.854 6.41119 15.7833 6.28143 15.744C6.15166 15.7047 6.01421 15.698 5.88124 15.7245C5.74827 15.751 5.62388 15.8099 5.51909 15.8959C5.4143 15.9819 5.33233 16.0925 5.28046 16.2178C5.22858 16.343 5.20838 16.4792 5.22166 16.6141C5.23494 16.749 5.28128 16.8786 5.35659 16.9913C5.43189 17.1041 5.53383 17.1965 5.65338 17.2605C5.77294 17.3245 5.90641 17.3579 6.042 17.358L10.542 21.858C10.7031 22.0191 10.914 22.0998 11.1252 22.0998C11.3364 22.0998 11.5473 22.0191 11.7084 21.858C11.8631 21.7033 11.95 21.4935 11.95 21.2747C11.95 21.0559 11.8631 20.846 11.7084 20.6913L8.6169 17.5998H23.3748C23.5936 17.5998 23.8034 17.5129 23.9582 17.3582C24.1129 17.2035 24.1998 16.9936 24.1998 16.7748C24.1998 16.556 24.1129 16.3462 23.9582 16.1914C23.8034 16.0367 23.5936 15.9498 23.3748 15.9498Z" fill="#1D7BC5"/>
</svg>
