<svg width="26" height="26" viewBox="0 0 26 26" fill="none" xmlns="http://www.w3.org/2000/svg">
    <path d="M22.8232 16.126C22.7148 16.4629 22.5947 16.7969 22.457 17.125C22.4951 17.0312 22.5361 16.9375 22.5742 16.8437C22.1875 17.7607 21.6836 18.6221 21.0742 19.4101C21.1357 19.331 21.1973 19.2519 21.2588 19.1728C20.6553 19.9492 19.9551 20.6465 19.1787 21.25C19.2578 21.1885 19.3369 21.1269 19.416 21.0654C18.6426 21.6601 17.7959 22.1553 16.8994 22.5391C16.9932 22.501 17.0869 22.4599 17.1807 22.4219C16.2285 22.8232 15.2295 23.0957 14.207 23.2334C14.3096 23.2187 14.415 23.2041 14.5176 23.1924C13.5098 23.3242 12.4902 23.3242 11.4854 23.1924C11.5879 23.207 11.6934 23.2217 11.7959 23.2334C10.7734 23.0957 9.77442 22.8232 8.82227 22.4219C8.91602 22.4599 9.00977 22.501 9.10352 22.5391C8.20411 22.1553 7.36036 21.6601 6.58692 21.0654C6.66602 21.1269 6.74512 21.1885 6.82423 21.25C6.04786 20.6465 5.34766 19.9492 4.74415 19.1728C4.80567 19.2519 4.86719 19.331 4.92872 19.4101C4.31934 18.6221 3.81544 17.7607 3.42872 16.8437C3.4668 16.9375 3.50782 17.0312 3.54591 17.125C3.15333 16.1875 2.88966 15.206 2.75196 14.2012C2.76661 14.3037 2.78126 14.4092 2.79298 14.5117C2.65821 13.4951 2.65821 12.4668 2.79298 11.4531C2.77833 11.5557 2.76368 11.6611 2.75196 11.7637C2.88966 10.7588 3.15333 9.77733 3.54298 8.84276C3.50489 8.93651 3.46387 9.03026 3.42579 9.12401C3.81251 8.20409 4.31934 7.34276 4.92579 6.55175C4.86426 6.63085 4.80274 6.70995 4.74122 6.78905C5.34473 6.01268 6.04493 5.31249 6.82423 4.7119C6.74512 4.77343 6.66602 4.83495 6.58692 4.89647C7.36036 4.30175 8.20704 3.80663 9.10352 3.42284C9.00977 3.46093 8.91602 3.50194 8.82227 3.54003C9.77442 3.13866 10.7734 2.8662 11.7959 2.7285C11.6934 2.74315 11.5879 2.7578 11.4854 2.76952C12.4932 2.63768 13.5127 2.63768 14.5176 2.76952C14.415 2.75487 14.3096 2.74022 14.207 2.7285C15.2295 2.8662 16.2285 3.13866 17.1807 3.54003C17.0869 3.50194 16.9932 3.46093 16.8994 3.42284C17.7988 3.80663 18.6426 4.30175 19.416 4.89647C19.3369 4.83495 19.2578 4.77343 19.1787 4.7119C19.958 5.31542 20.6553 6.01268 21.2617 6.78905C21.2002 6.70995 21.1387 6.63085 21.0772 6.55175C21.6865 7.34276 22.1904 8.20409 22.5801 9.12401C22.542 9.03026 22.501 8.93651 22.4629 8.84276C22.8525 9.7744 23.1162 10.7558 23.2539 11.7549C23.2393 11.6523 23.2246 11.5469 23.2129 11.4443C23.3477 12.4668 23.3477 13.5039 23.2129 14.5264C23.2275 14.4238 23.2422 14.3183 23.2539 14.2158C23.1602 14.8633 23.0195 15.5019 22.8232 16.126C22.6416 16.7119 23.04 17.4297 23.6406 17.5674C24.2764 17.7139 24.8857 17.3769 25.082 16.75C25.9024 14.1191 25.8467 11.1807 24.8711 8.5996C24.6338 7.96971 24.3555 7.35155 24.0274 6.76268C23.6963 6.17089 23.3037 5.62304 22.8877 5.08983C22.0879 4.0703 21.1182 3.19725 20.0488 2.46776C18.0273 1.09081 15.5693 0.349598 13.126 0.323231C10.6885 0.296864 8.22169 0.994129 6.17384 2.31835C5.10157 3.01268 4.11719 3.86522 3.30274 4.85253C2.86622 5.3828 2.45899 5.93651 2.11036 6.52831C1.76466 7.11132 1.48048 7.72362 1.22852 8.35057C0.165046 10.9726 0.0654367 14.0019 0.900398 16.6973C1.65333 19.126 3.13575 21.332 5.14551 22.8965C5.67579 23.3096 6.22364 23.6963 6.80958 24.0244C7.38087 24.3437 7.98145 24.6103 8.59083 24.8447C9.73634 25.2812 10.9522 25.5215 12.1768 25.6094C14.5967 25.7822 17.0723 25.208 19.1875 24.0244C21.4082 22.7851 23.2744 20.8281 24.3731 18.5371C24.6514 17.9599 24.8887 17.3623 25.085 16.75C25.2725 16.167 24.8652 15.4463 24.2676 15.3086C23.6231 15.1621 23.0254 15.5019 22.8232 16.126Z" fill="#CE2029"/>
    <path d="M13.7969 23.6377C13.5508 23.3564 13.3106 23.0693 13.082 22.7734C13.1436 22.8525 13.2051 22.9316 13.2666 23.0107C12.3555 21.8271 11.5967 20.5322 11.0137 19.1553C11.0518 19.249 11.0928 19.3428 11.1309 19.4365C10.5362 18.0215 10.1319 16.5332 9.92385 15.0156C9.93849 15.1182 9.95314 15.2236 9.96486 15.3262C9.75685 13.7764 9.75685 12.2031 9.96486 10.6533C9.95021 10.7559 9.93556 10.8613 9.92385 10.9639C10.1319 9.44336 10.5362 7.95507 11.1279 6.53711C11.0899 6.63086 11.0488 6.72461 11.0108 6.81836C11.5938 5.4414 12.3496 4.14355 13.2637 2.95703C13.2022 3.03613 13.1406 3.11523 13.0791 3.19433C13.3076 2.89843 13.5479 2.6084 13.794 2.32715C14.002 2.09277 14.1367 1.82031 14.1367 1.49804C14.1367 1.21093 14.0078 0.868161 13.794 0.668942C13.5713 0.463864 13.2783 0.31152 12.9649 0.326169C12.666 0.340817 12.3408 0.437497 12.1358 0.668942C9.90334 3.20898 8.34767 6.3291 7.76467 9.66601C7.59181 10.6592 7.48342 11.667 7.46584 12.6748C7.44826 13.668 7.52736 14.6523 7.66213 15.6338C7.8965 17.3271 8.38283 18.9502 9.06252 20.5146C9.82131 22.2607 10.8789 23.8633 12.1328 25.293C12.3233 25.5098 12.6807 25.6357 12.9619 25.6357C13.249 25.6357 13.5918 25.5068 13.791 25.293C13.9961 25.0703 14.1485 24.7773 14.1338 24.4639C14.125 24.1445 14.0108 23.8809 13.7969 23.6377Z" fill="#CE2029"/>
    <path d="M2.04298 10.7148C2.23927 10.7148 2.43263 10.7148 2.62892 10.7148C3.15919 10.7148 3.69239 10.7148 4.22267 10.7148C5.00782 10.7148 5.79298 10.7148 6.57814 10.7148C7.53614 10.7148 8.49415 10.7148 9.45509 10.7148C10.5039 10.7148 11.5557 10.7148 12.6045 10.7148C13.6651 10.7148 14.7256 10.7148 15.7861 10.7148C16.7734 10.7148 17.7637 10.7148 18.751 10.7148C19.5859 10.7148 20.4238 10.7148 21.2588 10.7148C21.8594 10.7148 22.4629 10.7148 23.0635 10.7148C23.3477 10.7148 23.6348 10.7178 23.919 10.7148C23.9307 10.7148 23.9453 10.7148 23.957 10.7148C24.5693 10.7148 25.1582 10.1758 25.1289 9.54296C25.0996 8.90722 24.6133 8.37108 23.957 8.37108C23.7608 8.37108 23.5674 8.37108 23.3711 8.37108C22.8408 8.37108 22.3076 8.37108 21.7774 8.37108C20.9922 8.37108 20.207 8.37108 19.4219 8.37108C18.4639 8.37108 17.5059 8.37108 16.5449 8.37108C15.4961 8.37108 14.4443 8.37108 13.3955 8.37108C12.335 8.37108 11.2744 8.37108 10.2139 8.37108C9.22657 8.37108 8.23634 8.37108 7.24904 8.37108C6.41407 8.37108 5.57618 8.37108 4.74122 8.37108C4.14064 8.37108 3.53712 8.37108 2.93654 8.37108C2.65236 8.37108 2.36525 8.36815 2.08107 8.37108C2.06935 8.37108 2.0547 8.37108 2.04298 8.37108C1.43068 8.37108 0.841809 8.91015 0.871106 9.54296C0.900402 10.1787 1.38673 10.7148 2.04298 10.7148Z" fill="#CE2029"/>
    <path d="M23.957 15.2851C23.7608 15.2851 23.5674 15.2851 23.3711 15.2851C22.8408 15.2851 22.3076 15.2851 21.7774 15.2851C20.9922 15.2851 20.207 15.2851 19.4219 15.2851C18.4639 15.2851 17.5059 15.2851 16.5449 15.2851C15.4961 15.2851 14.4443 15.2851 13.3955 15.2851C12.335 15.2851 11.2744 15.2851 10.2139 15.2851C9.22657 15.2851 8.23634 15.2851 7.24904 15.2851C6.41407 15.2851 5.57618 15.2851 4.74122 15.2851C4.14064 15.2851 3.53712 15.2851 2.93654 15.2851C2.65236 15.2851 2.36525 15.2822 2.08107 15.2851C2.06935 15.2851 2.0547 15.2851 2.04298 15.2851C1.43068 15.2851 0.841809 15.8242 0.871106 16.457C0.900402 17.0928 1.38673 17.6289 2.04298 17.6289C2.23927 17.6289 2.43263 17.6289 2.62892 17.6289C3.15919 17.6289 3.69239 17.6289 4.22267 17.6289C5.00782 17.6289 5.79298 17.6289 6.57814 17.6289C7.53614 17.6289 8.49415 17.6289 9.45509 17.6289C10.5039 17.6289 11.5557 17.6289 12.6045 17.6289C13.6651 17.6289 14.7256 17.6289 15.7861 17.6289C16.7734 17.6289 17.7637 17.6289 18.751 17.6289C19.5859 17.6289 20.4238 17.6289 21.2588 17.6289C21.8594 17.6289 22.4629 17.6289 23.0635 17.6289C23.3477 17.6289 23.6348 17.6318 23.919 17.6289C23.9307 17.6289 23.9453 17.6289 23.957 17.6289C24.5693 17.6289 25.1582 17.0898 25.1289 16.457C25.0996 15.8213 24.6133 15.2851 23.957 15.2851Z" fill="#CE2029"/>
    <path d="M12.2031 2.32715C12.4492 2.6084 12.6895 2.89844 12.918 3.19434C12.8564 3.11523 12.7949 3.03613 12.7334 2.95703C13.6475 4.14062 14.4033 5.43848 14.9863 6.81836C14.9482 6.72461 14.9072 6.63086 14.8691 6.53711C15.4639 7.95215 15.8682 9.44043 16.0732 10.9639C16.0586 10.8613 16.0439 10.7559 16.0322 10.6533C16.2373 12.2031 16.2373 13.7764 16.0322 15.3262C16.0469 15.2236 16.0615 15.1182 16.0732 15.0156C15.8652 16.5361 15.4609 18.0215 14.8662 19.4365C14.9043 19.3428 14.9453 19.249 14.9834 19.1553C14.4004 20.5322 13.6445 21.8271 12.7305 23.0107C12.792 22.9316 12.8535 22.8525 12.915 22.7734C12.6748 23.0811 12.4287 23.3828 12.168 23.6758C11.96 23.9102 11.8252 24.1855 11.8252 24.5049C11.8252 24.792 11.9541 25.1348 12.168 25.334C12.3906 25.5391 12.6836 25.6914 12.9971 25.6768C13.2959 25.6621 13.6182 25.5654 13.8262 25.334C16.0791 22.7998 17.6436 19.6533 18.2295 16.3076C18.3994 15.332 18.5078 14.3447 18.5283 13.3545C18.5488 12.3437 18.4727 11.3418 18.335 10.3398C18.1035 8.64355 17.6143 7.02051 16.9346 5.45312C16.1758 3.7041 15.1182 2.10156 13.8613 0.668945C13.6709 0.452148 13.3135 0.326172 13.0322 0.326172C12.7451 0.326172 12.4023 0.455078 12.2031 0.668945C11.998 0.891601 11.8457 1.18457 11.8604 1.49805C11.875 1.82031 11.9893 2.08398 12.2031 2.32715Z" fill="#CE2029"/>
</svg>
