<svg width="24" height="20" viewBox="0 0 24 20" fill="none" xmlns="http://www.w3.org/2000/svg">
    <path d="M10.9041 5.0912C10.9041 2.84124 12.7961 0.969691 15.046 1.00037C15.834 1.00947 16.6025 1.24594 17.2593 1.68137C17.916 2.11679 18.4331 2.73263 18.7482 3.45487H22.3584L19.055 6.75821C18.8419 10.0765 17.373 13.189 14.947 15.4629C12.5211 17.7369 9.32016 19.0016 5.99508 19C2.72242 19 1.90425 17.7728 1.90425 17.7728C1.90425 17.7728 5.17691 16.5455 6.81324 14.091C6.81324 14.091 0.267923 10.8184 1.90425 1.81854C1.90425 1.81854 5.99508 5.90936 10.9041 6.72753V5.0912Z" stroke="black" stroke-width="1.5" stroke-linecap="round" stroke-linejoin="round"/>
</svg>
