<svg width="20" height="20" viewBox="0 0 20 20" fill="none" xmlns="http://www.w3.org/2000/svg">
    <path d="M14.44 6.64C14.04 6.32 13.44 6.36 13.1 6.78C12.76 7.2 12.84 7.8 13.26 8.14C13.8 8.58 14.14 9.26 14.14 10C14.14 10.8 13.76 11.5 13.16 11.94C12.78 12.22 12.72 12.78 13.02 13.14L13.1 13.22C13.42 13.6 14.02 13.68 14.4 13.38C15.4 12.6 16.04 11.36 16.04 10C16.04 8.64 15.42 7.44 14.44 6.64Z" fill="white"/>
    <path d="M16.62 3.96C16.22 3.64 15.64 3.72 15.3 4.1C14.98 4.5 15.02 5.1 15.42 5.42C16.74 6.52 17.6 8.16 17.6 10C17.6 11.84 16.74 13.5 15.42 14.58C15.02 14.9 14.98 15.5 15.3 15.9C15.62 16.3 16.22 16.38 16.62 16.06C18.38 14.64 19.52 12.46 19.52 10.02C19.5 7.56 18.38 5.38 16.62 3.96Z" fill="white"/>
    <path d="M8.86 2.5L4 6.24H1.62C1 6.24 0.5 6.74 0.5 7.36V12.64C0.5 13.26 1 13.76 1.62 13.76H4L8.88 17.5C9.74 18.16 10.96 17.56 10.96 16.46V3.52C10.96 2.46 9.72 1.84 8.86 2.5Z" fill="white"/>
</svg>
