<svg width="18" height="18" viewBox="0 0 18 18" fill="none" xmlns="http://www.w3.org/2000/svg">
    <path d="M11.8476 14.0001C11.8474 14.0001 11.8472 14.0001 11.847 14.0001C10.1474 13.9991 8.19841 13.0623 6.49962 11.43C6.49674 11.4272 6.49386 11.4244 6.49102 11.4215C4.83825 9.74384 3.88972 7.81893 3.88861 6.14044C3.88861 5.52244 4.20912 4.87246 4.79112 4.30993C5.19157 3.92295 5.78275 3.53241 6.20088 3.53241C6.84513 3.53241 7.01658 3.83331 7.27608 4.28878C7.3393 4.39978 7.41095 4.52558 7.50366 4.67774C7.555 4.76168 7.62572 4.86813 7.70065 4.98079C8.17655 5.69688 8.47626 6.19763 8.31275 6.61641C8.18453 6.94231 7.84536 7.20976 7.51732 7.46837C7.39592 7.56413 7.22186 7.70132 7.14476 7.78425C7.2043 8.1112 7.63804 8.80339 8.39438 9.5503C9.14969 10.2963 9.84972 10.7245 10.1817 10.7842C10.2653 10.708 10.4032 10.5373 10.4995 10.4182C10.7624 10.093 11.0343 9.75667 11.3653 9.63078C11.4416 9.60171 11.5253 9.58691 11.6138 9.58691C11.9916 9.58691 12.4354 9.85572 13.0212 10.2354C13.1353 10.3093 13.243 10.3792 13.3287 10.4303C13.4821 10.5215 13.6095 10.5923 13.7219 10.6547C14.1831 10.9111 14.4877 11.0803 14.4877 11.7166C14.4877 12.1294 14.0921 12.7131 13.6999 13.1086C13.1304 13.6829 12.4726 13.9996 11.8476 14.0001ZM7.12237 10.8065C8.63348 12.2569 10.3994 13.1233 11.8471 13.1245C12.7224 13.1234 13.5552 12.002 13.6011 11.7088C13.6007 11.6489 13.5972 11.6174 13.5946 11.6025C13.5494 11.5637 13.4106 11.4866 13.2871 11.4179C13.1752 11.3558 13.036 11.2784 12.8709 11.1803C12.7703 11.1203 12.6558 11.0461 12.5346 10.9675C12.3049 10.8186 11.843 10.5193 11.6464 10.4692C11.5251 10.553 11.3124 10.8162 11.1924 10.9646C10.8883 11.3409 10.6256 11.6659 10.2552 11.6671C9.35266 11.6662 8.12282 10.5206 7.76733 10.1695C7.41184 9.81845 6.25187 8.60385 6.25094 7.71445C6.25094 7.34625 6.58142 7.08572 6.96409 6.78398C7.11359 6.66615 7.37841 6.45737 7.46376 6.33805C7.41273 6.14355 7.11 5.68804 6.95934 5.4614C6.87976 5.34168 6.80461 5.22858 6.74427 5.12993C6.64451 4.96621 6.56617 4.82876 6.50325 4.71829C6.43374 4.59626 6.35562 4.4592 6.31638 4.41454C6.30126 4.412 6.26938 4.4085 6.20868 4.40819C5.91154 4.45325 4.77529 5.27548 4.77529 6.14018C4.77631 7.56974 5.65364 9.31394 7.12237 10.8065Z" fill="black"/>
    <path d="M0.44347 18C0.33161 18 0.221434 17.9582 0.137284 17.8789C0.00928504 17.7583 -0.0338099 17.574 0.0275515 17.4102L1.4899 13.5065C0.418997 11.8511 -0.0824912 9.88222 0.0755677 7.93672C0.242184 5.88614 1.13822 3.96258 2.59852 2.52037C4.2442 0.895091 6.44767 0 8.80303 0C11.243 0 13.5487 0.950044 15.2955 2.67516C18.8393 6.17505 18.9096 11.8003 15.4523 15.2148C13.8068 16.8398 11.6035 17.7349 9.24857 17.7349C9.24844 17.7349 9.24848 17.7349 9.24835 17.7349C7.54131 17.7348 5.87888 17.2636 4.42496 16.3699L0.616515 17.9653C0.560651 17.9886 0.501817 18 0.44347 18ZM4.46703 15.4388C4.55251 15.4388 4.63746 15.4632 4.71097 15.5109C6.06669 16.3929 7.63566 16.859 9.24835 16.8591C11.3666 16.8591 13.3471 16.0553 14.8252 14.5955C17.9368 11.5225 17.8665 6.45279 14.6685 3.29439C13.0892 1.73466 11.0061 0.875738 8.80303 0.875738C6.68451 0.875738 4.70375 1.67971 3.22557 3.13961C0.542961 5.78898 0.175103 10.0226 2.35091 13.206C2.4308 13.3229 2.4488 13.4707 2.39923 13.6029L1.21545 16.7631L4.29399 15.4735C4.3495 15.4502 4.40842 15.4388 4.46703 15.4388Z" fill="black"/>
</svg>
